/* XPM */
static char *_401322f9cb94082e9013ec09ce2ca8c5tSmLnyJl9hkgbGF[] = {
/* columns rows colors chars-per-pixel */
"64 64 256 2 ",
"   c #010101",
".  c #0A090C",
"X  c #141315",
"o  c #1C3806",
"O  c #1C2F08",
"+  c #233C0B",
"@  c #243706",
"#  c #2C3A10",
"$  c #191B27",
"%  c #1B1D30",
"&  c #272728",
"*  c #383836",
"=  c #322C2E",
"-  c #231E26",
";  c #483833",
":  c #5F3B22",
">  c #1D4109",
",  c #274608",
"<  c #2D530B",
"1  c #2A4514",
"2  c #354818",
"3  c #365812",
"4  c #354A0B",
"5  c #3C650D",
"6  c #3B6414",
"7  c #3E7515",
"8  c #374B22",
"9  c #485319",
"0  c #466B19",
"q  c #4A751B",
"w  c #497717",
"e  c #557D1C",
"r  c #43700D",
"t  c #475625",
"y  c #534D31",
"u  c #6B563B",
"i  c #496826",
"p  c #557925",
"a  c #527331",
"s  c #696F36",
"d  c #313344",
"f  c #4B3D4B",
"g  c #3B464F",
"h  c #3E5C64",
"j  c #494646",
"k  c #564B47",
"l  c #5A544C",
"z  c #594E52",
"x  c #585555",
"c  c #4A4D54",
"v  c #66584B",
"b  c #665B55",
"n  c #6D5A4A",
"m  c #5A6A49",
"M  c #696648",
"N  c #78664B",
"B  c #6B675A",
"V  c #786758",
"C  c #73774D",
"Z  c #52566E",
"A  c #4C6477",
"S  c #696867",
"D  c #776B66",
"F  c #7B7668",
"G  c #787775",
"H  c #6E6B76",
"J  c #9B653A",
"K  c #866A59",
"L  c #877459",
"P  c #917356",
"I  c #A67756",
"U  c #8B6A63",
"Y  c #897768",
"T  c #95776B",
"R  c #8F7772",
"E  c #9A6E58",
"W  c #56851C",
"Q  c #58901D",
"!  c #68971D",
"~  c #5A8625",
"^  c #5C8535",
"/  c #638928",
"(  c #679728",
")  c #6C9736",
"_  c #6F9135",
"`  c #78A735",
"'  c #6FA32C",
"]  c #758F4D",
"[  c #7CA54D",
"{  c #6C876C",
"}  c #8E904F",
"|  c #A99859",
" . c #B3995A",
".. c #AD914B",
"X. c #90A652",
"o. c #B8A35C",
"O. c #A6AC5E",
"+. c #898478",
"@. c #96857A",
"#. c #929271",
"$. c #A5837B",
"%. c #AD9966",
"&. c #96A96E",
"*. c #B9A666",
"=. c #BBA976",
"-. c #ADAC6F",
";. c #C79573",
":. c #C3AA67",
">. c #C5B46C",
",. c #C9B676",
"<. c #C9AE75",
"1. c #C6865B",
"2. c #D1C17A",
"3. c #39588F",
"4. c #4F6891",
"5. c #6F7688",
"6. c #445A86",
"7. c #897C87",
"8. c #748498",
"9. c #788FA8",
"0. c #7BA69B",
"q. c #8A8885",
"w. c #948B88",
"e. c #979389",
"r. c #9B9A96",
"t. c #8D8D93",
"y. c #A68B83",
"u. c #A99488",
"i. c #B5978B",
"p. c #A69B99",
"a. c #B89C94",
"s. c #B28C84",
"d. c #9AA98B",
"f. c #B7B68A",
"g. c #A9A69A",
"h. c #BEA39A",
"j. c #B7A599",
"k. c #BAB897",
"l. c #B0AD89",
"z. c #9598A4",
"x. c #A699A8",
"c. c #93A6AC",
"v. c #ABA7A6",
"b. c #BDABA2",
"n. c #B5A9A9",
"m. c #BAB7A9",
"M. c #B9ADB4",
"N. c #B9B7B6",
"B. c #A8AEB9",
"V. c #CE9B8F",
"C. c #C9BA88",
"Z. c #C2A69B",
"A. c #C4AA9E",
"S. c #C6A699",
"D. c #D8A597",
"F. c #C5BB9A",
"G. c #CEAD8D",
"H. c #E3A498",
"J. c #C5ACA2",
"K. c #CAADA3",
"L. c #C7ABA8",
"P. c #CCB1A5",
"I. c #C5B3AB",
"U. c #CDB2AB",
"Y. c #C5B7A8",
"T. c #D1B5AB",
"R. c #D5B9AE",
"E. c #D7B5A6",
"W. c #C7AEB3",
"Q. c #CDBBB4",
"!. c #C8BAB7",
"~. c #D4BAB3",
"^. c #DABEB3",
"/. c #D3BEBA",
"(. c #DABEBB",
"). c #D3B6B3",
"_. c #D7AAA3",
"`. c #E6ABA6",
"'. c #B8C2B8",
"]. c #9AC1BB",
"[. c #C4C29D",
"{. c #C9C499",
"}. c #CFC592",
"|. c #C6C2A3",
" X c #CAC6A4",
".X c #CDC9AB",
"XX c #C8C5AA",
"oX c #D3CAA7",
"OX c #CCCAB4",
"+X c #CCC3BC",
"@X c #C9C6B6",
"#X c #D5C2BD",
"$X c #DAC3BD",
"%X c #D3CDBB",
"&X c #D7C7B7",
"*X c #D6D2BB",
"=X c #D0D3B1",
"-X c #E8D2B6",
";X c #B5B9C5",
":X c #91B8C2",
">X c #D6BFC3",
",X c #C8BEC5",
"<X c #BBC3CB",
"1X c #C9C8C8",
"2X c #D5C4C3",
"3X c #DAC4C3",
"4X c #D5CCC4",
"5X c #DCCBC4",
"6X c #DDCBCB",
"7X c #D9C7C9",
"8X c #DAD6C7",
"9X c #C8CAD3",
"0X c #DCDBDC",
"qX c #D8D6D5",
"wX c #D0D1D2",
"eX c #E2CAC8",
"rX c #E7D9CA",
"tX c #F3DACC",
"yX c #E3DDD3",
"uX c #E6DBD7",
"iX c #F3DCD4",
"pX c #F5DBD6",
"aX c #E8CBD1",
"sX c #DDE1D9",
"dX c #E7E2CD",
"fX c #F4E3CB",
"gX c #ECE3D4",
"hX c #E5E2DC",
"jX c #EBE4DB",
"kX c #ECE9DE",
"lX c #E6E4D6",
"zX c #F4E4D5",
"xX c #F4E5DA",
"cX c #F4EADB",
"vX c #F9E8D9",
"bX c #FAF2DF",
"nX c #DADBE2",
"mX c #EBDDE5",
"MX c #DBE3E5",
"NX c #E5E4E3",
"BX c #EBE6E3",
"VX c #EDEAE3",
"CX c #ECEBEC",
"ZX c #E7E7E8",
"AX c #F3ECE4",
"SX c #FBEDE2",
"DX c #F3EDEC",
"FX c #F3E3E7",
"GX c #F4F2EC",
"HX c #FAF2EB",
"JX c #FCF3E5",
"KX c #F6EEF1",
"LX c #F4F3F3",
"PX c #FAF4F3",
"IX c #FAF9F8",
"UX c #EEF1F0",
/* pixels */
"AXNXhXkXdXlXZXnXyXBXBXBXhXDXlXVXVXkXBXnX9XwXZXDXDXAXVXVXGXGXGXVXUXUXDXnXNXNXCXKXLXLXDXDXLXLXKXPXKXHXKXLXLXLXLXLXLXKXLXLXUXPXLXIX",
"BXuXBX4X8XlXMXwXqXBXjXjXlXBXlXjXkXjXBXqX9X<XZXDXVXDXDXVXGXVXGXGXGXVXBXZXZXDXCXKXKXDXKXDXLXIXGXGXDXKXKXLXKXIXIXIXIXKXKXLXLXUXCXCX",
"BXNXqX#.'.lXwX<XqXjXjXjXlXVXdXlXkXjXZXnX9XnXZXFXVXVXVXVXGXGXAXGXGXVXVXDXDXLXDXKXHXLXLXLXIXIXUXLXPXPXPXKXUXUXZXCXZXmXZXZXBXVXCXBX",
"xXlX'.] f.qX1XN.qXjXlXlXdXcX0XlXjXlXyXuXZXMXNXNXVXkXjXVXGXkXVXVXDXDXDXHXHXPXHXPXPXKXGXGXLXLXAXZXNXNXNXNXZXZXCXUXUXIXLXLXLXLXPXLX",
"zXkXd.] &.sXwXwXqXjXlXlXqXjXdXlXjXgXlXgXyXlXjXiXkXVXVXGXGXAXGXAXAXFXCXVXBXBXuXFXjXuXNXhXhXZXBXBXDXCXGXGXUXUXMX9XCXUXUXGXPXGXLXLX",
"dXlXe.a &.*XqXdX8XyXyXdXyXjXyXlXjXBXAXkXFXAXAXAXkXjXkXVXkXsXyXsXlXyX0XsXZXBXFXDXDXAXAXFXVXGXVXVXAXVXAXVXZXnX<X<XwXUXGXAXHXGXNX1X",
"dXdXm C [ =XdXdXlXlXjXlXcXAXkXxXjXgXyXyXlXyXyX8XrXyXyXyXlXqXjXBXVXDXVXCXwX0XGXVXFXVXBXjXVXGXBXkXVXVXAXVXZX9XnXnX<XNXGXDXAXGXNXN.",
"cX*Xm ^ [ [.lXdXdXyXrX8X8X8X4X4X4X8XyXyXyXlXjXBXjXyXeX5X4X4X4X7X5X2X4X!.n.!.uXGXDXAXBXkXVXAXFXBXBXFXVXkXZX9X<X<X;XnXDXVXVXkXAXUX",
"lX'.m ^ [ -.8X%X*X4X8X*X*XyXeXyXyX8X4X4X!.@X4X8X5X#X$XeXeXeXeXeXeXeXeXeX7X>X/.aX6X7X2X4X6XyXuXjXAXkXkXlXZX<X<X<X;XnXDXFXkXkXDXyX",
"8Xd.i ^ ) &.*XqXdXdXyXrX*XrX#XQ.~.&X#X/.#X#X/.#X7X3X5X3X3XeX3X3X3X5X6X6X7X6X6X2X7X6X6X6X7X>X2X1X4XsXCXkXNX<X;X<X;XMXAXAXFXDXAXqX",
"lX&.^ ] ) [ l.m.%X*X*XXXY.~.#X&X$X$X$X$X/.#X$X3X#X2X2X3X#X$X$X2X2X7X7X7X2X3X3X7X7X3X7X7XeX6XeX5X+X+X4XqXCXN.B.B.x.nXDXAXVXVXAXlX",
"8X] ^ ) ( ] k.2XQ.Y.~.&X&X&X$X$X$X$X$X$X$X$X$X$X$X(.$X$X5XU.W.3X(.3X3X(./.3X3X3X3X3X3X3X2X$X3X7X7X2X>X!.2XN.1X9X9XuXGXAXcXAXDXkX",
"8X^ i ^ Q ) d.+XQ.&X&X&X&X^.$X^.^.^.^.(.$X$X$X$X$X(.(.$X~.I.7X3X>X(.3X3X>X).5X3X$X(.2X$X3X$X2X2X2X#X3X7X>X/.2X2X4XlXVXAXVXAXkXlX",
"=Xm i ^ ) ^ } 2XI.P.~.~.^.^.^.^.^.&X^.$X^.^.^.(.(.(.$X(.I.2X3X>X(.>X(.>X3XT.Q.3X#X#X#X#X$X2X2X2X2X3X3X(.>XeX>X2X!.cXDXcXAXkX8X%X",
"'.8 t ) _ ) [ b.3X5X/.I.P.R.E.^.^.~.^.^.^.^.&X^.~.#X^.Q.)./.(.(.(.(.(.(.(.>XW./.(.#X#X(././.2X/.#X3X3X$XeX(.M.!.qXSXAXJXHXAX4X@X",
"&.8 ^ ] 0 ( [ k.Q.5XHXrX@XY.Q.U.T.).R.R.R.E.~.~.~.~.).).).Q.).).).~.).~.).).).J././././.Q.~.~.(.~.(.$X#XW.Q.+X!.DXHXAXdX4XY.@X@X",
"{ 2 a ^ p ( ~ l.F.#XqXPXHXFXmXaX/.a.E.).R.R.R.R.R.^.~.^.).).~.~.^.).~.~.R.$X/.b.I.~.).~.).).L.W.W.I.!.>X#X3X!.8X4X%Xm.g.'.@XOXOX",
"B 2 6 q _ ` Q f.&XY.5XPXLXKXKXFX).L.R.T.T.E.T.T.R.P.T.R.).R.).).).R.~.~.T.rX$XU.A.~.R.).).).W.>XaX0XNX6XQ.n.m.m.@X@XOX@XoXOX%XOX",
"y 1 a ( ) ` ( &.8Xv.qXIXFX0XFX>XL.).T.T.T.T.T.P.P.A.A.E.R.R.).).R.E.R.T.~.eX$XE.A.P.T.R.R.).U.).FXKXIX2Xg.XXXX@X8X*XdX%X%X%X*X+X",
"8 2 a [ ' ( ) X.OXaXFXVX!.aXFXW.L.L.L.T.T.P.T.R.h.J.h.U.E.T.T.T.T.U.T.P.E.R.R.T.Z.A.K.T.T.T.).L.aXmXFXuX@X%X8X%X%X%XdX8XOX%XOXQ.",
"2 2 a ' ' ! ' ] =XZXqX2Xx.>XmXa.I.!.P.P.P.P.P.P.h.P.a.E.T.L.U.U.U.T.R.T.U.U.T.T.h.K.Z.T.T.T.T.W.).>XW.4XN.dXOX%XOXOXrXXX@XOX%X*X",
"t t p ` ` ` ' ] k.NXwXAX7X,X,X1XDXIX&XZ.K.K.P.Z.A.T.a.A.K.J.U.U.W.L.W.U.T.P.K.A.a.P.Z.W.T.T.T.W.>XM.v.g.hXIX=X'.*X8XdXOX*XdXrX*X",
"2 i ~ ( ' ' ( ) f.VXIXKXNX0XqXIXLXIX2XA.K.J.A.a.U.T.a.A.Z.Z.P.K.U.K._.L.K.U.J.h.j.U.J.J.T.U.T.I.KXKXN.!.IXCX8X8XyX8X4X%X%XOX*XrX",
"2 i ~ ! ! ( ' ( &.wXLXZXMX0XLXLXLXDXJ.K.K.P.S.S.J.k.!.U.S.Z.P.P.K.K.K.K.A.A.Y.b.!.L._.a.K.J.K.I.mXPXUX1XUXCX@XOX@XXXOXOX.X.X*X=X",
"8 i p ` ( ( ' ( { lXIXZX0XhXLXUXIX1XJ.K.P.J.K.P.J.J.AXI.i.i.A.h.J.K.K.K.A.A.u.b.kXJ.U.h.A.P.P.k.lXLXUX0XsXkX'.'.Y.Y.m.k.j.k.m.XX",
"2 t p ) ( ' ' ^ ] GXZXMX<XNXIXUXKXI.J.K.K.A.h.P.j.8XDXu.i.$.i.h.P.K.K.K.Z.s.y.u.xX#XJ.A.J.J.J.b.+XLXIX0XwXIX Xm.|.|.|.k.|.OX.X X",
"2 4 i e 7 7 Q Q C 8XZXUXwXsXIXUXGXQ.A.K.K.Z.A.J.Y.SXkXI.y.$.u.Z.P.K.K.P.i.$.y.b.AXiXj.K.J.P.P.J.!.LXIX1XMXIX8XXX=X=X.Xk.k.|..X.X",
"8 0 e ( ' ' ) [ =XUXIXMXZXsXqXIXVXb.A.J.K.Z.j.!.JXJXSXSXyXj.i.h.S.K.P.J.y.p.+XcXSXJXOXZ.h.A.F.J.Y.GXGX+X0XNX=X X|..XoX|.|..X=X.X",
"8 a W / ' ` ' { { <XUX@XIXMX8.0X4Xh.K.J.K.a.Q.cX+Xv.aXHXAXSXR.j.a.K.U.u.Y.SXSXHX5XgXJX).i.A.P.A.b.kXNXsXUXwXk..X.X|..X[.F..X X X",
"# i / p ~ ( ' h g B.c.<XMXUX5.p.I.P.J.K.K.b.5XF Y = f r.+XxXSXrXh.j.g.XXJXyXn.v = V g.gXb.Z.P.K.b.n.qXUXsXLXsX'..X.X[.f.F.|.XX|.",
"9 p e e w m A 3.0.9.4.4.4.MX9.r.P.K.J.K.L.n.B t.R E : R b.AXxXbXAXI.4XJXAX+XF K 9 N w.g.8Xh.P.J.h.p.sXIXqXNXwXXX|..X[.[.[.[..X X",
"i p / _ W ^ ^ 0.:X4.3.3.0.z.5.p.A.K.K.K.U.R g.N.u J J s.jXxXcXcXAXJXAXcXAXlXN P J u qXv.@Xj.P.A.h.a.NXc.'.8X8.c.@X[.[.[.[.[..X.X",
"t 0 e / / Q ) { 6.6.3.4.;X4.6.x.a.J.K.K.L.u.@Xm.I J I l.HXcXcXcXcXcXcXcXfXbX-...J  .rX!.2XA.P.j.J.w.z.4.6.t.c.A 8.B..X[.f.f.|.XX",
"3 q / p ( ! ( a A Z 6.t.c.3.4.M.n.h.S.J.L.b.4XiX%.2.G.rXAXcXcXcXcXzXcXcXcXbXC.;.2.oXgXrX4Xh.K.u.I.t.5.9.4.A c.:XA A g.{.f.k.[.|.",
"3 p ` ` ) / e i a m x.!.5.3.5.M.K.i.S.K.K.J.uXPXpX-XyXSXAXcXcXcXcXcXcXcXcXFXcX*X-XcXSXSXP.J.J.i.>X5.9.9.4.9.h c.d.'.k.|.[.[. X|.",
"e _ ' ( ` / W p ) ) J.U.x.6.7.u.J.b.a.J.L.J.~.pXFXDXkXzXAXcXcXcXcXcXcXcXcXAXSXSXjXxXpXrXh.T.Z.V.T.t.4.:Xh c.8.Z N. X{.k.[.[.|.|.",
"9 / ' ' ' ( ! e ~ _ l._.W.G i.T a.K.a.a.Z.J.Z.tXtXpXpXxXcXxXvXSXcXcXcXzXzXzXcXvXpXpXpXL.J.h.a.Z.P.t.A z.R w.v.+.k.[.[.f.k.{. X X",
"q e ' ! ' ' ( ( ^ p #.S.A.j.S.T T _.K.S.s.i.Z.(.pXpXpXvXxXxXcXxXvXzXzXcXcXkXxXxXpXpX).L.a.a.J.a.h.t.t.l.f.l.l.F.k.[.k.l.f.[.[.[.",
"e e _ / ( ( Q ( ( ~ s l.S.h.S.S.U T S.K.Z.$.a.Z.aXiXpXxXxXxXxXcXcXfXgXcXzXkXxXiXaX(.a.a.Z.K.h.i.i.A.j.k.{.{. X.X|.|.k.-.f.k.[.|.",
"0 r r / 7 W W W 7 r 0 } G.S.$.$.T T T S.J.S.&XL.a.iXxXFXcXxXxXzXzXcXzXzXxXxXxXxXpXpX3XZ.K.J.V.R u.F.f.}.{.F.{.{.{. XoX{..X X|.|.",
"9 e p ( e 0 w W ~ ~ 6 p &.$.S.U T T U T S.Z.T.FX(.rXFXcXxXxXcXcXzXzXzXzXzXcXxXpXpXSXU.J.).s.$.T h.%.O.-.}.}.}.{.}.C.C.F.[.{.=X=X",
"0 r e q ~ q w W ~ 0 5 ~ X.X.#.@.U U E K U i.j.pXHXvXAXxXcXzXzXcXcXcXzXcXzXxXSXxXDXiXZ.J.T Y L T +.p W ( ( X.O.O.-.}.}.}.C.C.C.}.",
"0 0 0 6 0 w w e r r q w Q Q ^ C K K K K T K $.u.SXAXxXxXzXcXcXzXzX&XfXcXzXxXcXcXcXI.u.R Y U m y # , 5 w w W W w / _ } O.O.o.,.}.",
", , , , > , < < , , 1 , < 6 6 i N y M M n R V U y.rXvXvXzXzXzXcXzXdXgXzXcXgXJXzXu.U T U N t + o 1 , > , , < 6 7 7 W 7 W Q / _ X.",
"@ @ o o o > > , o > 1 1 1 1 o @ 2 O y 8 # l n n V $.*XzXSXcXzXxXzXcXxXzXcXvXeX$.K U T L _ Q e 6 < < , > , , , 3 < 3 6 i W w q p ",
"s s s u y t t 8 1 4 1 , 1 , @ @ o O O # @ + 2 # y P S.S.eXzXcXiXgXcXcXcXiXj.V N Y n C m ( ! ( ( Q W w w w 0 5 < , , < < < , 3 0 ",
",.C.,.=.<.<.=.-.*.O.| } } s s s s 9 9 t 9 4 , 4 @ ; E.D.V.G.(.pXvXbXzX~.Y u : n 9 # M y 5 w 5 r 0 6 q e e W Q ~ ~ q q q 6 6 < < ",
",.,.>.,.>.,.,.>.>.2.>.2.,.>.>.:.:.:.*.o.%...} } N u T `.H.H.D.V.E.E.G.V.y O # # @ , # 8 + + , , , > , > > 3 6 6 6 6 q p e W W 0 ",
",.,.,.,.,.>.>.>.>.>.>.>.>.:.:.:.o.o.:.>.,.<.*.%.S.R f 7._._.H.D.H.H.H.V.;.P y 4 @ @ O O @ @ O 2 1 1 1 1 , + o > o o , , , , 6 3 ",
",.,.,.,.*.*.=.>.:.*.*.>.>.o.o.o.:.*.:.*.o.*.C.-XzXW.f d H V._.D.D.H.7.U `.`.V.V.#.C s s 9 9 # # + @ + @ + @ , 1 1 o , @ , o 1 4 ",
"fXfX-X-XoX}.oX}.C.<.=.,.,.>.:.o. .*.%.=.{.rXvXvXpXpX).Z d f b I 1.E - U `.D.V.-XvXrXC.%.*.%.| } P s y 9 9 4 4 # , @ o @ + + o 1 ",
"k.&X*XrXrXzXbXJXbXfXrX-X-XoXF.G.F.g.G xXvXvXpXiXfXvXvX`.7.Z c I 1.I U V.D.D.E.tXpXzXxXoXF -.%.:.>.>.:.o.| | } } s u 9 9 # 4 o 1 ",
"D { +.{ #.@.e.e.u.b.5X*XrXrXrXzXHXz.g.SXtXfXzXzXzXfXtXpXtXH.D.;.;.H.`.H.G.D.tXzXzXzXtXJXt.r.{.%.| o. . .o.*.:.o.:.*.o.| ..} s u ",
"g.w.q.+.e.+.R d.+.$XvXzXfXzXzXpXFXH 9XSXgXzXpXfXpXzXxXzXpX-XH.<.;.V.H.V.`.tXfXgXzXvXvXfX7Xt.SXrX{.=.%.| *.o..... . . .| | *. .| ",
"e.q.r.r.{ 8.e.r.g.zXtXtXtXtXtXzX1XH uXpXzXzXzXpXpXpXzXiXtXcXoX}.<.;._.(.fXvXgXiXvXvXvXfXDXt.1XbXvXfXtXG.| o.o. .o. .|  .........",
"q.+.q.m.p.N.N.w.%XJXSXSXvXvXbXPX7X5.ZX8XyXtXzXfXbXvXvXvXvXrX-X-X1.G.tXSXfXxXgXiXpXeX4XzXJXr.n.SXtXvXSXzX=.C.,.C.<.>.<.=.*.=.=.<.",
"Z x c S S Z c c b x l l y j j k y $ x F B V F F Y @.+.+.q.Y Y K n K 7.t.M.W.!.M.M.n.W.j.u.e.p.g.$.@.Y +.T #.L N L P L } T T L v ",
"% X g & X $ $ &     = = X     & X   X * k b l k y k l k l y D M.7.Z Z x z x N.!.,XW.,Xw.n B b B V l R B V y +.e.S y D b b V l F ",
"g c.8.p.& g Z - .   S j - X   H *   - z B z l l x D N.x x l Y w.v z j j j x = z S k w.7.D z r.R y 8Xg.8X@X* +.v.NX; 1XS { n.S p.",
"d v.H M.{ t.wXj X t.v.z = G { x S x . w.p.p.R M.m.G N.p.w.D D w.+.#.b B F #.B F F F D S r.G 0X@.b hX- e.m.g N.G VXS G '.,XD D w.",
"& F B x q.N.q.= j g l S S x . H wXX . wX5.W.n.v.M.w.M.5.qXz U w.l l B B F l.m { B F v k M.c p.v v 6Xv.9Xv.B UXH LXH l qXqXk @.+.",
"$ 8.q.x x B t.X j S G H G S = G r.j X w.v.t.R x.x.7.n.b M.y Y w.c c D { #.B +.D l Y B f !.S M.b n v G @Xj.; Y F S b y m.p.n V k ",
"% $ $ $ $ $ % $ X G S * $ S S g & j - x v k k z z z f 7.D k +.+.j x k x j k k l S z 7.U e.B e.V v @.v.v.v K K s K N U m.v K N D ",
"$ % % % $ % $ $ .               .   - b v v b b n b n b z v F !.M.M.M.v.v.M.;XM.,Xx.,Xp.z y f y U n b m K E E E E K n l K E z ; "
};
